# xmcd
#
# Track frame offsets: 
#        150
#        13227
#        25886
#        38635
#        53415
#        75714
#        88383
#        109378
#        124574
#        140502
#
# Disc length: 2044 seconds
#
# Revision: 0
# Processed by: cddbd v1.4PL0 Copyright (c) Steve Scherf et al.
# Submitted via: ExactAudioCopy v0.90b3
#
DISCID=7e07fa0a
DTITLE=Clay Blaker - Welcome To The Wasteland
DYEAR=2001
DGENRE=Country
TTITLE0=Welcome To The Wasteland
TTITLE1=This Heart's Not Mine
TTITLE2=It's Not Too Late
TTITLE3=A Day Late And A Darlin' Short
TTITLE4=Brown Eyes Of Mexico
TTITLE5=Helpless Heart
TTITLE6=This House Has No Doors
TTITLE7=No Memories Hangin' Round
TTITLE8=I Don't Really Know Me Anymore
TTITLE9=I Never Knew I Could Feel This Way
EXTD=
EXTT0=
EXTT1=
EXTT2=
EXTT3=
EXTT4=
EXTT5=
EXTT6=
EXTT7=
EXTT8=
EXTT9=
PLAYORDER=
